<svg xmlns="http://www.w3.org/2000/svg" width="700" height="390" viewBox="0 0 700 390">
<rect width="700" height="390" fill="white"/>
<text x="60" y="24" font-family="sans-serif" font-size="16">Trajectory success (%)</text>
<path d="M 60 40 V 330 H 610" fill="none" stroke="#333"/>
<text x="56.0" y="350" font-family="sans-serif" font-size="12">1</text>
<text x="193.5" y="350" font-family="sans-serif" font-size="12">2</text>
<text x="331.0" y="350" font-family="sans-serif" font-size="12">3</text>
<text x="468.5" y="350" font-family="sans-serif" font-size="12">4</text>
<text x="606.0" y="350" font-family="sans-serif" font-size="12">5</text>
<polyline points="60.0,40.0 197.5,40.0 335.0,149.4 472.5,330.0 610.0,330.0" fill="none" stroke="#1261a0" stroke-width="2.5" stroke-dasharray=""/>
<text x="618" y="334.0" font-family="sans-serif" font-size="10" fill="#1261a0">pure IID</text>
<polyline points="60.0,40.0 197.5,105.7 335.0,280.8 472.5,330.0 610.0,330.0" fill="none" stroke="#1261a0" stroke-width="2.5" stroke-dasharray="6 4"/>
<text x="618" y="334.0" font-family="sans-serif" font-size="10" fill="#1261a0">pure OOD</text>
<polyline points="60.0,40.0 197.5,40.0 335.0,40.0 472.5,40.0 610.0,40.0" fill="none" stroke="#d55e00" stroke-width="2.5" stroke-dasharray=""/>
<text x="618" y="44.0" font-family="sans-serif" font-size="10" fill="#d55e00">reencode IID</text>
<polyline points="60.0,40.0 197.5,105.7 335.0,105.7 472.5,105.7 610.0,127.6" fill="none" stroke="#d55e00" stroke-width="2.5" stroke-dasharray="6 4"/>
<text x="618" y="131.6" font-family="sans-serif" font-size="10" fill="#d55e00">reencode OOD</text>
</svg>
